<svg id="Layer_1" data-name="Layer 1" xmlns="http://www.w3.org/2000/svg" viewBox="0 0 1366 768"><defs><style>.cls-1{fill:#202020;}.cls-2{opacity:0.05;}.cls-3{fill:none;}.cls-4{fill:#c1c1c1;}</style></defs><title>Artboard 1</title><rect class="cls-1" width="1366" height="768"/><g class="cls-2"><polygon class="cls-3" points="523.16 545.88 497.1 485.73 404.94 273.03 295.41 227.56 479.73 652.98 793.3 517.12 758.84 437.58 582.72 518.51 523.16 545.88"/><polygon class="cls-3" points="885.36 115.87 571.78 251.74 606.25 331.28 782.37 250.34 841.93 222.97 867.99 283.12 960.14 495.82 1069.68 541.29 885.36 115.87"/><path class="cls-4" d="M918.68,31.53,487.41,218.39l86.14,198.53,235.6-108.38L911.63,545.08l279.9,116.19ZM868,283.18,842,222.9l-59.64,27.45L606.22,331.23l-34.43-79.47L885.31,115.91l184.33,425.45L960.08,495.8Z"/><path class="cls-4" d="M791.63,352,555.89,460.28,453.4,223.73,173.5,107.54,446.35,737.29,877.63,550.43ZM295.33,227.6,404.95,273,497,485.79l26.05,60.12,59.64-27.45,176.11-80.87,34.43,79.47L479.72,652.9Z"/></g></svg>