<svg xmlns="http://www.w3.org/2000/svg" viewBox="0 0 344.01 552.61"><defs><style>.cls-1{fill:#fff;}</style></defs><title>face</title><g id="Layer_2" data-name="Layer 2"><g id="Layer_1-2" data-name="Layer 1"><path class="cls-1" d="M333,172.83,344,175c-5.67-11.16-11.32-21.19-21.33-28-1.55-1.05-1.87-2.17-1.26-4.08,1.49-4.63-.51-7.59-5.12-8.75-1.74-.44-4.16-.47-4.12-2.58.05-2.51,3.3.18,4.22-1.71a53,53,0,0,0-6.13-10.4c-2.92-3.72-5.75-7.4-2.46-12.38.76-1.15-.66-1.87-1-2.81-1.74-5.33-6.06-9.5-7.28-15.64,4,1.07,5.32,5.53,10,5.61-1.63-2.4-1-4.87-1.24-7.28-.31-3.66.16-8.3-1.87-10.73a51.22,51.22,0,0,0-20.69-15.31c-2.21-.85-2.83-1.48-2.12-3.52,1.74-5-1-7.19-5.26-8.44-9.25-2.7-17.63-7.53-26.52-11.11-6.61-2.67-6.92-7.52-1.2-11.25a6.27,6.27,0,0,1,2.14-.48l-.94-1.48a8.11,8.11,0,0,1-5.22-.1c-4.46-1.21-9.08-1.83-13.6-2.7-5.21-1-7.64-1.43-9.94-5.9-.6-1.19-1.76-.41-2.16-.79-3.21-3.05-10.18-1-10.59-7.8-4.78,2.84-9,1.79-12.33-3.24C197.15,2.81,196.83.61,194.7,2c-3.34,2.17-6.43.07-9-.89-5.54-2-9.52-1.3-13.89,2.77-1.65,1.55-5,8.21-8.66.82-.75-1.53-3.16-2-4.77-.56S157,6.29,159.41,6.26c.76,0,0,1.24-.5,1.53C156.82,9,154.66,10,152.68,7.6c-1.35-1.6-3-2.94-5.08-1.95-3.66,1.7-8.31.23-11,4.67-1.15-2.58.42-3.65.38-5.08-.07-2.54-2.52-2.15-3.82-3.16-.69-.55-1.84-.83-2.3.2-.69,1.55.87,2.08,1.7,2.93s1.24,1.91.37,2.86-2,.44-2.67-.49c-1.83-2.51-3.29-.64-5,.25-4.85,2.55-5.95,1.9-6.87-3.92-2.16,9.18-9.19,14.51-15.43,20.63-1.18-2.32,1.62-4,.77-6.05-1.82-.88-2.52,2.46-4.21,1.15-1.07-.84-.44-2.34-.41-3.57s2.45-3.07-.67-3.7c-2-.41-3.82.42-4.27,2.34-1,4.21-3,5.78-5.9,3.68-2.49,6.52-7.93,2.7-11.65,3.55,3.39,4.57,3.15,5.9-.74,6.66-.87.17-3-1.57-2.48.76.34,1.66-2.34,3.66.69,5a3.3,3.3,0,0,1,2,4.28c-1.63-.3-3-.51-4.36-.83s-1.18-3.34-3.86-2c.44,1.42,1.73,2.56,1.42,4.33-.43,2.4-3.55.3-3.93,2.66,5,1.81-1.43,4.84,1.2,7.15-5-5.16-4.38,5.24-8.83,2.85-.83-.45,2.55,3.14.71,5.22-1.93.6-2.78-2.26-4.83-1.52.81,2.87,3.11,6.38-3,6-1.39-.08-2.86,1.13-3.52,3.3-.92,3-2,6.65-6.59,6.55a3.67,3.67,0,0,0-3.18,2.6c-1.26,3.45-7.72,2.94-6.38,8.37,0,.12-.52.46-.85.58-3.57,1.31-1.45,2.67.1,3.89-.27.26-.39.49-.51.49C24,88.06,20,90.92,17.17,95.61,15.12,99,14.7,103.23,16,107.81c.46,1.57-.27,2.77-.8,4.08-1.77,4.4-3.56,8.48-2.68,13.73,1.61,9.71-3.36,19.07-2.5,29,.81,9.29-5.31,17.67-4.25,27.11a33.23,33.23,0,0,1-1.17,12.51c-2.19,8-1.67,16.32-2.48,24.42-.72,7.23.25,14.86-.45,22.33-.09,1-.17,2.6.42,3.09,5.69,4.67,4.34,11.66,6.13,17.61a27.42,27.42,0,0,1,1.28,10.86,39.21,39.21,0,0,0,1.9,16.71c1.92,5.53.48,8.56-5.29,9.8a6.93,6.93,0,0,0-5.31,5.44,35.81,35.81,0,0,0-.61,5.31c-1.25,10.87,3.22,21,4.26,31.59.26,2.6,1,5.83,3.61,8,1.37-2.36,1.08-4.53,1-6.61-.15-6.89,1.34-13.46,3.43-20,.81-2.52,2.15-3.84,5-3.89,1.72,0,2.78.33,3.29,1.92.92,2.84-1.51,3.6-3.08,4.94-2.21,1.88-5,2.92-5.53,6.68-1.16,8.23-.62,16.37.26,24.53a14.35,14.35,0,0,0,3.7,7.61,2.67,2.67,0,0,0,2.75,1.18c1.06-.28.69-1.45.9-2.27.61-2.44-2-6,1.33-7.23S25.71,359,28,360.54c.59.38,1.05,1,1.68,1.27a2.52,2.52,0,0,0,3.5-1.49c1.3-3.18-3.46-13.13-6.77-14.18a6.38,6.38,0,0,1-4.18-8.37c.43-1,1.18-3.33,2-2.62,3.79,3.14,2.48-.75,2.68-1.87,1.77-10.22-.27-20.56,1.27-30.9,2.2-14.81-1.17-30,3.15-44.84,2.54-8.69,3.75-17.77,5.53-26.69.28-1.37.38-2.78.57-4.17-4.49-.57-1.32-2.91-1-4.54.68-3.83,2.15-7.74-2-10.74A5.41,5.41,0,0,1,33,208.64c-4.5-14.85,2-27.32,8.66-39.75,3.44-6.47,10.94-8.24,15.69-13.23,3.84-4,8.83-5.69,14.12-7.14-.52,3.23-2.71,4.84-4.91,6.49,11-7.25,24-10.66,37.18-12,14.07-1.47,28.24-1.07,42.35-1.1,18.75,0,37.53.11,56.21,1.82,17.3,1.59,35,4.16,51.27,10.5a129.5,129.5,0,0,1,14.23,6.59,11.43,11.43,0,0,1,1.23.15c2.29.42,3.66,2.05,5.28,3.45a3.83,3.83,0,0,0,5.74-.27c1.68-1.77.38-3.14-.72-4.66s-3.16-2.5-2.35-5.1a7.61,7.61,0,0,1,4,2.51,116.49,116.49,0,0,1,10.5,12.76c1.83,2.63,3.55,3.92,5.28-.69,1.24,3.07,2,5.45,3.14,7.66,2,4,6.2,3.85,9.72,4.16,4.26.37,4.75-4.38,6.7-6.76,1.45-1.78-1.65-4.24-3.13-6.19-3.08-4.07-6.81-7.75-8.15-12.89a3.62,3.62,0,0,0-2.76-3c-10.14-1.89-8.12-11.2-10.54-17.63-.76-2,3.79-4,1.78-7.22-.16-.25,1.15-.8,2.17-.33,4.36,2,8.5,4.15,12.05,7.53,3.25,3.09,5.3,7.09,8.24,10.23,1.74,1.86,3.26,3.21,2.81,5.65-.67,3.68-3.82-.64-5.36,1.7,1.52,2.13,2.42,5.49,6.1,2.07.3-.28.95-.59,1.23-.45,2.7,1.34,3.9,9.67,1.72,12.14-1.91,2.15-3.9,5.07-.89,6.78,4.37,2.49,4.31,5,.74,9.52,5.66-2.13,7.25,1,8.94,3.9.74,1.29,3,2.43,1.56,4s-3.18,2.93-5.58,2.66c-1.75-.19-3.43-3.21-5.09-.74-1.4,2.09,1.16,3.36,2.21,4.89a4.73,4.73,0,0,1,.84,2c.59,4.93,4.08,5.7,8.34,6.24-.8-3.26-3-6.43,1.55-8a1.2,1.2,0,0,0,.91-1.63C333.71,187.94,337,180.15,333,172.83Z"/><path class="cls-1" d="M312.65,211.8c4,.91,5.15,4.31,7.56,6.52,1.3-1.47-.31-2.23-.52-3.24-.3-1.44-2.91-3-.22-4.33,2-1,4.32-2.45,6.51.51,3.72,5,7.37,9.45,4.51,16.7-3.18,8.07-.71,16.87-1.12,25.33-.07,1.39.12,2.79.19,4.19-3.52.22-4.52-2.38-5.88-5.12-2.29,3-1.29,5.46-.36,7.89,1.83,4.81,4.48,9.42,4.08,14.8-.27,3.69,0,7.33-4.06,10.05-1.27.85-2,5.35-1.89,8.53.31,6.66,1.72,13.54-2.41,19.8-1.52-1.38.09-3.72-1.8-4.88-2.46.05-1.33,3-2.92,3.79a2,2,0,0,1-1.31-2.59c2.6-5.24-.69-10.68.81-16,.91-3.21-.17-6.71-1.05-10-2.68-10-6.56-19.63-6.4-30.31.14-9.41,1.74-18.29,6.64-26.31,1.3-2.14,2-3.74.49-5.72C311.23,218.44,312,215.35,312.65,211.8Z"/><path class="cls-1" d="M309,318.23c3,1.67,1.74,3.84,3.35,5.27,4.3-2.18,6.91-6.65,11.1-9.23,5.94-3.66,8.36-2.93,9.46,3.89,2.24,13.87-1.11,26.5-9.26,38.24.2-9.46-1.84-18.48-4.76-27.33-.48-1.46-.09-3.71-1.93-4.11-2.53-.55-2.15,2.27-3.19,3.51-2.66,3.14-4.57,6.71-6.93,10.28C307.67,332.11,309.63,325.65,309,318.23Z"/><path class="cls-1" d="M300.52,367.62c-.81-1.76.64-2.06,1.37-2.56,5.15-3.47,7.83-8.56,9.56-14.3a7.7,7.7,0,0,0-1.55-8c-1.5-1.64-.42-3,.6-4.2s2.27-.55,3.37.12c4.67,2.88,7.66,16.55,4.46,21.06a8,8,0,0,1-3.46,2.36C310.13,364.05,305.33,365.8,300.52,367.62Z"/><path class="cls-1" d="M30.31,394.82a36.77,36.77,0,0,1-4.25-1.48c-1.49-.7-2.79-2.06-2.59-3.69.28-2.26,2.35-1.6,3.86-1.57,3.44.07,5.86-2.11,8.67-3.57,1.49-.77,3.07-4.86,5.38-1,1.72,2.89,2.52,6-.76,8.54C37.68,394.33,34.22,394.88,30.31,394.82Z"/><path class="cls-1" d="M30.6,376c-5.18.29-5.41-4.59-5.34-6.93.12-4,4.34-3.24,7.27-3.23,3.43,0,5.42,1.64,5,5.34C37.05,375.49,34,376,30.6,376Z"/><path class="cls-1" d="M301.91,294.7c-.86-1.5-22.32-3.26-32.94-3.92s-34.62.31-45.09,2.17c-11,2-36.81,6.07-49.2,6.07s-38.14-4.1-49.2-6.07C115,291.09,91,290.13,80.4,290.78s-32.08,2.42-32.95,3.92-.87,13,0,14.5,3.47,6.72,3.68,8.68S53.74,329,55,334.69s8.23,24.8,12.14,26.75,19.29,6.28,41.18,5.42,28.58-4.72,35.33-11.06c3.85-3.62,9.77-12.59,12.14-17.33,2.45-4.92,6.72-16.7,8.66-20.16s7.6-4.12,10.19-4.12,8.23.65,10.19,4.12,6.21,15.24,8.67,20.16c2.36,4.74,8.28,13.71,12.14,17.33,6.74,6.34,13.43,10.19,35.33,11.06s37.28-3.47,41.18-5.42,10.83-21,12.14-26.75,3.68-14.87,3.9-16.81,2.82-7.16,3.68-8.68S302.78,296.2,301.91,294.7ZM152.14,335.09a41.85,41.85,0,0,1-18.42,22.85c-5.86,3.26-20.6,6.29-37.28,5.42s-24.93-5.42-27.53-8.88c-1.81-2.41-6.5-10.84-7.59-31.65s5-21.32,11.92-23.27,21.24-3,32.52-3a111.28,111.28,0,0,1,21.89,1.73c9.32,1.73,14.09,3,23.19,8.68S156.26,323,152.14,335.09ZM288,322.83c-1.08,20.81-5.78,29.24-7.58,31.65-2.61,3.46-10.85,8-27.53,8.88s-31.43-2.16-37.28-5.42a41.86,41.86,0,0,1-18.43-22.85c-4.11-12.13-7.8-22.45,1.31-28.08s13.86-6.95,23.18-8.68a111.38,111.38,0,0,1,21.9-1.73c11.27,0,25.57,1,32.51,3S289.13,302,288,322.83Z"/><path class="cls-1" d="M296.19,424.11c-4.68,0-27.32,21.68-35.05,32.41-10.68,14.83-18.73,38.2-45.87,55.56s-32.35,8.76-43.52,8.76-16.39,8.62-43.53-8.76S93,471.35,82.34,456.52c-7.73-10.73-29.25-32.41-33.94-32.41S58.24,445.87,63.12,453c5.39,7.86,9.85,17.43,19.22,33.63s12.17,33.57,36.51,52.1,81.43,18.52,105.77,0,27.16-35.88,36.52-52.1S275,460.85,280.36,453C285.24,445.87,300.87,424.11,296.19,424.11Z"/><polygon class="cls-1" points="47.45 309.2 26.39 303.26 26.39 285.26 47.45 294.69 47.45 309.2"/><polygon class="cls-1" points="301.14 294.3 302.06 308.26 314.37 304.22 313.76 294.01 301.14 294.3"/><path class="cls-1" d="M40.77,391.87a.62.62,0,0,0-.1.46l6.67,32.18a2,2,0,0,0,2.25,1.6l1.88.22a.58.58,0,0,0,.63-.72l-9-35.32a.58.58,0,0,0-1-.2Z"/><path class="cls-1" d="M304.43,365.72a32,32,0,0,1-.39,3.56l-6.87,56c-.22,1.81-1.23,3-2.32,2.79l-1.94.38c-.41.09-.75-.56-.65-1.25l9.27-61.51c.13-.83.77-1,1.07-.35Z"/><rect class="cls-1" x="136.31" y="450.35" width="71.33" height="11" rx="4.83" ry="4.83"/><path class="cls-1" d="M205.77,460.33l27.79-22.9h0l-29.39,12.85c-.22.12-2.11-.06-2.11.19l1.75,9.81C203.81,460.8,205.32,460.6,205.77,460.33Z"/><path class="cls-1" d="M139.17,460.94l-12-3.5a.25.25,0,0,1-.05-.47l12.19-6.24a.25.25,0,0,1,.37.23l-.19,9.74A.26.26,0,0,1,139.17,460.94Z"/></g></g></svg>